<?xml version="1.0" encoding="UTF-8" standalone="no"?>
<!-- Created with Inkscape (http://www.inkscape.org/) -->

<svg
   version="1.1"
   id="svg1"
   width="1000"
   height="750"
   viewBox="0 0 1000 750"
   sodipodi:docname="1.svg"
   inkscape:version="1.3.2 (091e20e, 2023-11-25, custom)"
   xmlns:inkscape="http://www.inkscape.org/namespaces/inkscape"
   xmlns:sodipodi="http://sodipodi.sourceforge.net/DTD/sodipodi-0.dtd"
   xmlns="http://www.w3.org/2000/svg"
   xmlns:svg="http://www.w3.org/2000/svg">
  <defs
     id="defs1" />
  <sodipodi:namedview
     id="namedview1"
     pagecolor="#ffffff"
     bordercolor="#000000"
     borderopacity="0.25"
     inkscape:showpageshadow="2"
     inkscape:pageopacity="0.0"
     inkscape:pagecheckerboard="0"
     inkscape:deskcolor="#d1d1d1"
     inkscape:export-bgcolor="#0007ff00"
     inkscape:zoom="0.89131281"
     inkscape:cx="463.36146"
     inkscape:cy="373.04524"
     inkscape:window-width="1920"
     inkscape:window-height="986"
     inkscape:window-x="-11"
     inkscape:window-y="-11"
     inkscape:window-maximized="1"
     inkscape:current-layer="g1" />
  <g
     inkscape:groupmode="layer"
     inkscape:label="Image"
     id="g1">
    <path
       style="fill:#ffffff;fill-opacity:0;stroke:#ffffff;stroke-width:8.56063"
       d="m 243.85826,401.34499 c 3.78149,2.28151 10.07239,6.55471 14.8291,8.14023 8.10297,2.70092 24.52439,1.29219 32.76919,0.0519 7.27884,-1.09502 14.96882,-1.15888 22.03624,-3.31831 6.41146,-1.959 13.28226,-4.16993 19.23635,-7.25881 4.16915,-2.16288 7.9667,-4.77484 12.18474,-6.89586 3.34858,-1.68382 6.89352,-2.92934 10.0589,-4.97747 2.91059,-1.88327 5.40514,-4.33084 8.34785,-6.16998 3.50327,-2.18949 7.35027,-3.72752 10.94034,-5.7552 2.98079,-1.68355 5.56234,-4.09057 8.34785,-6.06629 4.39248,-3.11551 9.01766,-5.75589 13.1699,-9.22905 3.82864,-3.20249 6.35273,-7.65349 9.7478,-11.25115 3.90521,-4.13825 8.57854,-7.48421 12.34029,-11.76963 5.79692,-6.60392 10.41758,-14.1695 17.4216,-19.28769"
       id="path1" />
    <path
       style="fill:#ffffff;fill-opacity:0;stroke:#ffffff;stroke-width:8.56063"
       d="m 463.65035,309.98773 c 1.27897,3.21462 1.75655,6.87949 3.8369,9.64385 4.64664,6.17442 10.03205,5.8085 16.33274,8.86611 3.96604,1.92464 5.47199,3.98528 8.9182,6.22183 3.72448,2.41715 7.83245,4.24622 11.76995,6.27368 9.51236,4.89803 19.37176,9.01151 29.45079,12.65107 4.39144,1.58575 9.15244,2.55019 13.42915,4.40713 2.33718,1.0148 4.38216,2.45045 6.74049,3.47386 3.63219,1.57619 7.63577,2.1782 11.407,3.31831 3.81251,1.15259 7.27943,2.91464 11.25145,3.5257 12.89429,1.98369 26.74164,3.25884 39.76894,2.74798 3.24057,-0.12708 6.29389,-1.24082 9.48854,-1.65916 3.56126,-0.46634 6.96377,-0.40068 10.52555,-0.46663 10.27459,-0.19027 31.45813,-2.7248 39.45784,-8.91797 2.91245,-2.25474 5.21864,-5.05574 8.0886,-7.31065 0.93263,-0.73276 1.81046,-1.6635 2.74805,-2.33319 0.11339,-0.081 0.34566,-0.34566 0.36295,-0.20739 0.0364,0.29154 0,0.58762 0,0.88142"
       id="path2" />
    <path
       style="fill:#ffffff;fill-opacity:0;stroke:#ffffff;stroke-width:8.56063"
       d="m 293.42685,408.70749 c 4.27132,-0.96647 7.54815,-1.43495 11.45884,-3.11091 3.65168,-1.56497 6.55921,-4.54426 10.0589,-6.37738 4.88502,-2.55875 10.18895,-4.36073 14.9328,-7.20696 3.71689,-2.23008 7.2957,-4.92741 11.09589,-6.94771 2.50374,-1.33107 5.16652,-2.29695 7.62195,-3.7331 4.42683,-2.58921 7.84456,-6.44814 11.87365,-9.54015 3.98962,-3.06172 9.14994,-4.59619 13.37729,-7.41435 2.55489,-1.70321 4.82373,-3.84838 7.31085,-5.6515 3.01592,-2.18648 6.41778,-3.68854 9.59225,-5.59965 6.85025,-4.12402 11.62382,-10.10552 17.68084,-15.13979 2.56031,-2.12799 5.45821,-3.99299 8.0886,-6.01444 2.60538,-2.00223 4.77739,-4.50235 7.1553,-6.74032 0.77551,-0.72988 1.76855,-2.45332 2.7999,-2.74798 0.23087,-0.066 0.68281,-0.59527 0.6222,-0.36294 -0.11592,0.44435 -0.3111,0.86414 -0.46665,1.29622"
       id="path3" />
    <path
       style="fill:#ffffff;fill-opacity:0;stroke:#ffffff;stroke-width:8.56063"
       d="m 357.46158,380.3463 c 8.9662,-5.97881 19.73013,-9.54445 27.11754,-17.68037 1.14332,-1.25916 2.06155,-2.7058 3.111,-4.0442 0.14347,-0.18297 0.66383,-0.64172 0.46665,-0.51848 -2.37099,1.48183 -4.30767,4.04831 -6.27385,6.01444 -4.50115,4.50103 -7.76373,7.4994 -13.53284,10.78451 -1.82044,1.83481 -4.52374,1.58402 -6.6368,2.69613 -1.49329,0.78592 -5.64596,3.69857 -4.2517,2.74797 5.09694,-3.47509 10.18406,-5.86911 15.29574,-9.12535 3.46535,-2.2075 7.07749,-6.7686 11.1996,-7.51805"
       id="path4" />
  </g>
</svg>
