<?xml version="1.0" encoding="UTF-8" standalone="no"?>
<!-- Created with Inkscape (http://www.inkscape.org/) -->

<svg
   version="1.1"
   id="svg1"
   width="800"
   height="600"
   viewBox="0 0 800 600"
   sodipodi:docname="10.svg"
   inkscape:export-filename="10_label.png"
   inkscape:export-xdpi="96"
   inkscape:export-ydpi="96"
   inkscape:version="1.3.2 (091e20e, 2023-11-25, custom)"
   xmlns:inkscape="http://www.inkscape.org/namespaces/inkscape"
   xmlns:sodipodi="http://sodipodi.sourceforge.net/DTD/sodipodi-0.dtd"
   xmlns="http://www.w3.org/2000/svg"
   xmlns:svg="http://www.w3.org/2000/svg">
  <defs
     id="defs1" />
  <sodipodi:namedview
     id="namedview1"
     pagecolor="#ffffff"
     bordercolor="#000000"
     borderopacity="0.25"
     inkscape:showpageshadow="2"
     inkscape:pageopacity="0.0"
     inkscape:pagecheckerboard="0"
     inkscape:deskcolor="#d1d1d1"
     inkscape:export-bgcolor="#000000ff"
     inkscape:zoom="1.2516667"
     inkscape:cx="400.26631"
     inkscape:cy="300"
     inkscape:window-width="1920"
     inkscape:window-height="986"
     inkscape:window-x="-11"
     inkscape:window-y="-11"
     inkscape:window-maximized="1"
     inkscape:current-layer="g1" />
  <g
     inkscape:groupmode="layer"
     inkscape:label="Image"
     id="g1">
    <path
       style="fill:#ffffff;fill-opacity:0;stroke:#ffffff;stroke-width:8.56063"
       d="m 188.1235,357.84662 c 0.29589,1.53164 0.24751,3.17236 0.88768,4.59491 1.47946,3.2876 9.15514,5.42695 12.16637,6.3702 6.70296,2.09967 13.31071,4.73244 20.25988,5.95249 4.2296,0.74258 8.5458,0.98946 12.79296,1.61866 10.21363,1.51309 20.22858,2.87181 30.59868,2.87181 32.28193,0 65.84809,-14.30293 92.00491,-32.42539 6.18171,-4.28293 12.02433,-10.05743 17.70129,-14.98565 5.85711,-5.08461 10.43901,-11.46134 15.56042,-17.23088 4.96785,-5.59655 10.32819,-10.50096 14.46388,-16.81316 3.54788,-5.41505 6.18434,-11.60193 9.86886,-16.86538"
       id="path1" />
    <path
       style="fill:#ffffff;fill-opacity:0;stroke:#ffffff;stroke-width:8.56063"
       d="m 427.84799,300.09706 c 9.69356,18.9416 28.86171,21.23461 46.1591,29.08364 10.24564,4.64916 20.11984,10.47153 31.06863,13.4192 26.56729,7.15254 51.06711,7.79167 78.32427,7.93665 15.96507,0.0849 31.87567,-0.55826 47.7778,-2.19302 3.17371,-0.32626 14.59142,-0.6424 16.70918,-3.28953 1.48167,-1.85205 -1.22436,-0.22246 -3.13297,0.99208"
       id="path2" />
  </g>
</svg>
