<?xml version="1.0" encoding="UTF-8" standalone="no"?>
<!-- Created with Inkscape (http://www.inkscape.org/) -->

<svg
   version="1.1"
   id="svg1"
   width="800"
   height="600"
   viewBox="0 0 800 600"
   sodipodi:docname="12.png"
   inkscape:export-filename="12_label.png"
   inkscape:export-xdpi="96"
   inkscape:export-ydpi="96"
   inkscape:version="1.3.2 (091e20e, 2023-11-25, custom)"
   xmlns:inkscape="http://www.inkscape.org/namespaces/inkscape"
   xmlns:sodipodi="http://sodipodi.sourceforge.net/DTD/sodipodi-0.dtd"
   xmlns="http://www.w3.org/2000/svg"
   xmlns:svg="http://www.w3.org/2000/svg">
  <defs
     id="defs1" />
  <sodipodi:namedview
     id="namedview1"
     pagecolor="#505050"
     bordercolor="#eeeeee"
     borderopacity="1"
     inkscape:showpageshadow="0"
     inkscape:pageopacity="0"
     inkscape:pagecheckerboard="0"
     inkscape:deskcolor="#505050"
     inkscape:export-bgcolor="#000000ff"
     inkscape:zoom="1.2516667"
     inkscape:cx="400.26631"
     inkscape:cy="300"
     inkscape:window-width="1920"
     inkscape:window-height="986"
     inkscape:window-x="-11"
     inkscape:window-y="-11"
     inkscape:window-maximized="1"
     inkscape:current-layer="g1" />
  <g
     inkscape:groupmode="layer"
     inkscape:label="Image"
     id="g1">
    <path
       style="fill:none;stroke:#ffffff;stroke-width:10;stroke-opacity:0.99785"
       d="m 147.34267,464.41703 c 1.00951,2.08859 1.73225,4.34198 3.02853,6.26577 10.73198,15.9272 51.14906,14.61413 67.46331,12.6882 17.59863,-2.07756 33.90043,-6.33327 50.75413,-11.80055 7.53748,-2.44513 15.29965,-4.81748 22.50517,-8.14551 8.5261,-3.93796 16.71679,-8.75694 25.01155,-13.15812 15.06409,-7.99299 30.30415,-15.56746 43.54829,-26.52512 3.52127,-2.91335 6.16636,-6.49544 9.19005,-9.8686 2.87821,-3.21087 6.08164,-6.14469 8.7201,-9.55531 3.89092,-5.02958 6.91605,-10.74761 10.07773,-16.2388 3.96112,-6.87967 16.4075,-27.33713 15.71707,-34.9317"
       id="path1" />
    <path
       style="fill:none;stroke:#ffffff;stroke-width:10;stroke-opacity:0.99785"
       d="m 418.50129,363.48582 c 3.94483,11.60746 3.42651,13.98776 11.12205,23.02673 3.97394,4.66768 9.42083,7.86242 13.83728,12.11383 3.36805,2.29427 5.10144,6.09903 7.93686,8.87652 3.63446,3.56018 5.83872,4.93094 9.66,8.09329 5.81343,4.81099 10.21243,11.09364 15.87372,16.13437 4.62077,4.11429 12.10257,8.40539 17.33577,11.53947 8.94368,5.35624 20.15809,7.4675 30.0243,10.39075 13.1677,3.90143 25.90179,8.8602 39.52765,11.17396 9.47875,1.60956 19.05179,1.5761 28.61447,2.19303 12.59457,0.81253 24.88129,1.06423 37.49121,0.26107 15.87837,-1.01134 31.38314,-6.63319 46.57684,-11.01732 9.35576,-2.6996 27.38602,-6.05605 32.37403,-14.62015 2.07939,-3.57018 3.74007,-7.26564 6.21372,-10.5996 2.85613,-3.84947 6.32615,-7.36475 8.25016,-11.80054 0.11422,-0.26333 4.98953,-12.3849 2.14086,-7.20565"
       id="path2" />
  </g>
</svg>
