<?xml version="1.0" encoding="UTF-8" standalone="no"?>
<!-- Created with Inkscape (http://www.inkscape.org/) -->

<svg
   version="1.1"
   id="svg1"
   width="1000"
   height="750"
   viewBox="0 0 1000 750"
   sodipodi:docname="15.svg"
   inkscape:export-filename="15_label.png"
   inkscape:export-xdpi="96"
   inkscape:export-ydpi="96"
   inkscape:version="1.3.2 (091e20e, 2023-11-25, custom)"
   xmlns:inkscape="http://www.inkscape.org/namespaces/inkscape"
   xmlns:sodipodi="http://sodipodi.sourceforge.net/DTD/sodipodi-0.dtd"
   xmlns="http://www.w3.org/2000/svg"
   xmlns:svg="http://www.w3.org/2000/svg">
  <defs
     id="defs1" />
  <sodipodi:namedview
     id="namedview1"
     pagecolor="#505050"
     bordercolor="#eeeeee"
     borderopacity="1"
     inkscape:showpageshadow="0"
     inkscape:pageopacity="0"
     inkscape:pagecheckerboard="0"
     inkscape:deskcolor="#505050"
     inkscape:export-bgcolor="#000000ff"
     inkscape:zoom="1.0013333"
     inkscape:cx="500.33289"
     inkscape:cy="375"
     inkscape:window-width="1920"
     inkscape:window-height="986"
     inkscape:window-x="-11"
     inkscape:window-y="-11"
     inkscape:window-maximized="1"
     inkscape:current-layer="g1" />
  <g
     inkscape:groupmode="layer"
     inkscape:label="Image"
     id="g1">
    <path
       style="fill:none;stroke:#ffffff;stroke-width:10;stroke-opacity:0.99785"
       d="m 157.09119,558.85214 c 1.78383,-13.63088 11.31405,-19.97257 21.40863,-27.54331 3.53025,-2.64761 6.64667,-5.90006 10.37797,-8.28909 18.97902,-12.15172 40.9417,-19.97538 62.78995,-24.99784 16.37135,-3.76343 33.34474,-4.50697 49.60538,-8.68071 36.21473,-9.29551 72.77684,-23.26161 102.73533,-46.01429 5.38219,-4.08763 11.22016,-6.80475 16.83972,-10.44296 5.82061,-3.76837 10.89503,-8.69908 16.31756,-12.98843 11.77417,-9.31365 22.07118,-19.43904 32.30876,-30.41512 5.45649,-5.85011 10.91087,-12.14534 14.29418,-19.45001 1.00698,-2.17412 2.06306,-4.25655 3.13297,-6.39631 0.43186,-0.8637 1.82566,-3.32387 1.10959,-2.67601 -1.47886,1.33798 -1.36619,1.33999 -2.48027,2.87181"
       id="path1" />
    <path
       style="fill:none;stroke:#ffffff;stroke-width:10;stroke-opacity:0.99785"
       d="m 508.31027,364.41729 c 1.97986,4.17718 2.85234,9.09097 5.93959,12.53155 3.61091,4.02417 8.88323,6.17116 13.44567,9.07232 17.06457,10.85103 34.53154,17.15661 52.73834,25.19364 8.61758,3.80406 15.94846,9.82339 24.73742,13.2495 12.67227,4.93991 26.02829,8.10623 38.70524,12.98844 11.44327,4.40708 22.3817,10.40275 33.61416,15.33809 7.70802,3.38677 15.92639,5.57272 23.62783,9.00706 12.44899,5.55143 24.07268,12.74913 36.48605,18.40571 10.94941,4.98947 23.04041,6.59705 33.94052,11.74833 15.6594,7.40048 29.05329,16.70874 47.1251,16.70874"
       id="path2" />
  </g>
</svg>
