<?xml version="1.0" encoding="UTF-8" standalone="no"?>
<!-- Created with Inkscape (http://www.inkscape.org/) -->

<svg
   version="1.1"
   id="svg1"
   width="1000"
   height="750"
   viewBox="0 0 1000 750"
   sodipodi:docname="16.svg"
   inkscape:export-filename="16_label.png"
   inkscape:export-xdpi="96"
   inkscape:export-ydpi="96"
   inkscape:version="1.3.2 (091e20e, 2023-11-25, custom)"
   xmlns:inkscape="http://www.inkscape.org/namespaces/inkscape"
   xmlns:sodipodi="http://sodipodi.sourceforge.net/DTD/sodipodi-0.dtd"
   xmlns="http://www.w3.org/2000/svg"
   xmlns:svg="http://www.w3.org/2000/svg">
  <defs
     id="defs1" />
  <sodipodi:namedview
     id="namedview1"
     pagecolor="#505050"
     bordercolor="#eeeeee"
     borderopacity="1"
     inkscape:showpageshadow="0"
     inkscape:pageopacity="0"
     inkscape:pagecheckerboard="0"
     inkscape:deskcolor="#505050"
     inkscape:export-bgcolor="#000000ff"
     inkscape:zoom="1.0013333"
     inkscape:cx="500.33289"
     inkscape:cy="375"
     inkscape:window-width="1920"
     inkscape:window-height="986"
     inkscape:window-x="-11"
     inkscape:window-y="-11"
     inkscape:window-maximized="1"
     inkscape:current-layer="g1" />
  <g
     inkscape:groupmode="layer"
     inkscape:label="Image"
     id="g1">
    <path
       style="fill:none;stroke:#ffffff;stroke-width:10;stroke-opacity:0.99785"
       d="m 95.280285,520.67007 c 13.516635,-23.20425 43.678165,-31.2157 68.794815,-33.02586 17.01654,-1.22638 33.96598,-2.21913 51.04132,-2.21913 24.1096,0 48.78804,0.0691 72.64576,-4.24245 14.77616,-2.67032 27.78798,-8.41872 41.57713,-14.03273 23.25583,-9.46819 43.25023,-20.84436 62.85523,-36.48509 5.9088,-4.714 10.78649,-10.49324 15.99121,-15.92551 5.27902,-5.50984 10.94085,-10.65379 15.9912,-16.38239 4.32749,-4.90867 7.92886,-10.36644 12.33607,-15.20756 1.39816,-1.53582 2.91438,-2.95986 4.37311,-4.43826 6.01371,-6.09482 11.53358,-12.28273 15.73012,-19.77636 0.51193,-0.91413 3.76304,-4.90978 1.50122,-5.28674"
       id="path1" />
    <path
       style="fill:none;stroke:#ffffff;stroke-width:10;stroke-opacity:0.99785"
       d="m 504.98149,376.75303 c 5.59148,9.50745 9.47643,20.2522 16.77445,28.52234 11.56986,13.11101 34.59479,25.46581 49.73591,34.5923 8.04343,4.84827 15.74626,10.29896 24.08471,14.62014 19.42913,10.06863 42.86012,15.96985 64.09536,20.88592 22.25175,5.1514 45.00448,7.48802 67.22834,12.59682 10.55512,2.4264 20.81553,5.83049 31.13389,9.07232 21.93692,6.89216 43.85936,13.67583 65.85766,20.36377 5.97453,1.81639 10.17494,2.95113 15.59958,5.48256 2.64255,1.23315 5.23827,3.54706 7.96297,4.56879 0.78264,0.29349 -1.26262,-1.1028 -1.95811,-1.56644"
       id="path2" />
  </g>
</svg>
