<?xml version="1.0" encoding="UTF-8" standalone="no"?>
<!-- Created with Inkscape (http://www.inkscape.org/) -->

<svg
   version="1.1"
   id="svg1"
   width="1000"
   height="750"
   viewBox="0 0 1000 750"
   sodipodi:docname="17.svg"
   inkscape:export-filename="17_label.png"
   inkscape:export-xdpi="96"
   inkscape:export-ydpi="96"
   inkscape:version="1.3.2 (091e20e, 2023-11-25, custom)"
   xmlns:inkscape="http://www.inkscape.org/namespaces/inkscape"
   xmlns:sodipodi="http://sodipodi.sourceforge.net/DTD/sodipodi-0.dtd"
   xmlns="http://www.w3.org/2000/svg"
   xmlns:svg="http://www.w3.org/2000/svg">
  <defs
     id="defs1" />
  <sodipodi:namedview
     id="namedview1"
     pagecolor="#505050"
     bordercolor="#eeeeee"
     borderopacity="1"
     inkscape:showpageshadow="0"
     inkscape:pageopacity="0"
     inkscape:pagecheckerboard="0"
     inkscape:deskcolor="#505050"
     inkscape:export-bgcolor="#000000ff"
     inkscape:zoom="1.0013333"
     inkscape:cx="500.33289"
     inkscape:cy="375"
     inkscape:window-width="1920"
     inkscape:window-height="986"
     inkscape:window-x="-11"
     inkscape:window-y="-11"
     inkscape:window-maximized="1"
     inkscape:current-layer="g1" />
  <g
     inkscape:groupmode="layer"
     inkscape:label="Image"
     id="g1">
    <path
       style="fill:none;stroke:#ffffff;stroke-width:10;stroke-opacity:0.99785"
       d="m 231.04235,388.76244 c 3.8129,2.20178 5.7956,6.61693 9.26838,9.26812 13.40021,10.23 33.66926,13.33319 49.99699,10.96511 12.14142,-1.76092 22.34702,-5.34287 33.28781,-10.44296 3.87356,-1.80567 7.95893,-2.9718 11.74864,-4.9604 6.50713,-3.41454 12.2668,-7.99221 18.60202,-11.68307 4.7666,-2.77698 9.76567,-5.26817 14.42472,-8.22383 5.74768,-3.64628 10.71757,-8.19557 16.57863,-11.68306 11.41221,-6.79055 22.78158,-16.15689 31.65606,-26.04213 9.58167,-10.67296 -5.21346,4.76483 4.43838,-5.54782 4.27578,-4.56852 8.50849,-8.7559 11.87918,-14.098 2.1046,-3.3355 2.81988,-7.34767 -1.89284,-3.26342"
       id="path1" />
    <path
       style="fill:none;stroke:#ffffff;stroke-width:10;stroke-opacity:0.99785"
       d="m 458.24801,312.98571 c 3.61162,2.56723 7.13005,5.27087 10.83486,7.70168 23.25496,15.25812 -5.6297,-4.49782 14.16363,7.76696 9.13783,5.66218 17.87121,12.60967 27.54404,17.42668 7.08735,3.52947 14.39455,6.14688 21.53917,9.46394 10.43116,4.8429 21.92522,10.98892 33.22255,13.51058 21.12339,4.71491 54.69174,2.49545 76.03981,-0.32635 13.4258,-1.77462 26.75705,-6.44079 38.44416,-13.11897 1.90988,-1.09133 12.86857,-8.26251 11.55283,-8.87651 -1.88289,-0.87866 -1.46397,-0.21836 -4.04675,1.04429"
       id="path2" />
  </g>
</svg>
