<?xml version="1.0" encoding="UTF-8" standalone="no"?>
<!-- Created with Inkscape (http://www.inkscape.org/) -->

<svg
   version="1.1"
   id="svg1"
   width="1000"
   height="750"
   viewBox="0 0 1000 750"
   sodipodi:docname="18.svg"
   inkscape:export-filename="18_label.png"
   inkscape:export-xdpi="96"
   inkscape:export-ydpi="96"
   inkscape:version="1.3.2 (091e20e, 2023-11-25, custom)"
   xmlns:inkscape="http://www.inkscape.org/namespaces/inkscape"
   xmlns:sodipodi="http://sodipodi.sourceforge.net/DTD/sodipodi-0.dtd"
   xmlns="http://www.w3.org/2000/svg"
   xmlns:svg="http://www.w3.org/2000/svg">
  <defs
     id="defs1" />
  <sodipodi:namedview
     id="namedview1"
     pagecolor="#505050"
     bordercolor="#eeeeee"
     borderopacity="1"
     inkscape:showpageshadow="0"
     inkscape:pageopacity="0"
     inkscape:pagecheckerboard="0"
     inkscape:deskcolor="#505050"
     inkscape:export-bgcolor="#000000ff"
     inkscape:zoom="1.0013333"
     inkscape:cx="500.33289"
     inkscape:cy="375"
     inkscape:window-width="1920"
     inkscape:window-height="986"
     inkscape:window-x="-11"
     inkscape:window-y="-11"
     inkscape:window-maximized="1"
     inkscape:current-layer="g1" />
  <g
     inkscape:groupmode="layer"
     inkscape:label="Image"
     id="g1">
    <path
       style="fill:none;stroke:#ffffff;stroke-width:10;stroke-opacity:0.99785"
       d="m 307.73487,379.42904 c 6.50526,3.02411 12.64182,7.01996 19.5158,9.07232 23.78277,7.10083 54.30513,1.67369 78.259,-3.19815 13.29641,-2.70429 28.0393,-4.79265 40.27172,-11.09565 10.93171,-5.63278 20.12498,-15.23656 29.04526,-23.56193 6.51108,-6.07685 10.09148,-13.67401 15.20796,-20.82065 2.11233,-2.95048 4.86215,-5.55684 6.65756,-8.74597 2.78158,-4.94084 3.35697,-8.14044 5.28689,-12.8579 0.34263,-0.83751 1.6034,-3.19643 -0.26108,-1.76225"
       id="path1" />
    <path
       style="fill:none;stroke:#ffffff;stroke-width:10;stroke-opacity:0.99785"
       d="m 509.81149,310.44024 c 4.59067,3.76382 8.8028,8.04376 13.77201,11.29145 4.51217,2.94898 9.6831,4.74028 14.48999,7.17953 10.5472,5.35217 20.93425,11.1154 31.72133,15.99079 24.93797,11.27109 56.55658,20.88659 83.93751,24.34515 10.85953,1.37169 22.83313,0.13415 33.41836,-2.67601 11.40984,-3.02908 9.19566,-5.80146 6.72283,-3.3287"
       id="path2" />
  </g>
</svg>
