<?xml version="1.0" encoding="UTF-8" standalone="no"?>
<!-- Created with Inkscape (http://www.inkscape.org/) -->

<svg
   version="1.1"
   id="svg1"
   width="1000"
   height="750"
   viewBox="0 0 1000 750"
   sodipodi:docname="2.svg"
   inkscape:export-filename="2_label.png"
   inkscape:export-xdpi="96"
   inkscape:export-ydpi="96"
   inkscape:version="1.3.2 (091e20e, 2023-11-25, custom)"
   xmlns:inkscape="http://www.inkscape.org/namespaces/inkscape"
   xmlns:sodipodi="http://sodipodi.sourceforge.net/DTD/sodipodi-0.dtd"
   xmlns="http://www.w3.org/2000/svg"
   xmlns:svg="http://www.w3.org/2000/svg">
  <defs
     id="defs1" />
  <sodipodi:namedview
     id="namedview1"
     pagecolor="#ffffff"
     bordercolor="#000000"
     borderopacity="0.25"
     inkscape:showpageshadow="2"
     inkscape:pageopacity="0.0"
     inkscape:pagecheckerboard="0"
     inkscape:deskcolor="#d1d1d1"
     inkscape:export-bgcolor="#000000ff"
     inkscape:zoom="1.0013333"
     inkscape:cx="500.33289"
     inkscape:cy="375"
     inkscape:window-width="1920"
     inkscape:window-height="986"
     inkscape:window-x="-11"
     inkscape:window-y="-11"
     inkscape:window-maximized="1"
     inkscape:current-layer="g1" />
  <g
     inkscape:groupmode="layer"
     inkscape:label="Image"
     id="g1">
    <path
       style="fill:#ffffff;fill-opacity:0;stroke:#ffffff;stroke-width:8.56063"
       d="m 151.28214,592.59595 c 1.56648,0.93552 3.03213,2.06554 4.69945,2.80655 1.35163,0.60071 4.86796,-1.05192 6.26595,-1.2401 6.23581,-0.83942 12.39386,-1.06526 18.60201,-2.34967 3.33456,-0.68989 6.40036,-2.37458 9.72526,-3.19815 7.65699,-1.89664 14.62964,-4.16473 21.99607,-6.91847 15.20586,-5.68428 30.6526,-10.05095 45.29754,-17.29615 3.01378,-1.49099 5.71116,-3.57844 8.74621,-5.02567 6.92038,-3.29991 14.17886,-5.86099 21.01701,-9.3334 10.43889,-5.30086 20.97861,-10.74758 31.65606,-15.5339 5.07735,-2.27599 10.52031,-3.59764 15.73012,-5.48255 8.13056,-2.94163 16.13427,-6.85889 24.01945,-10.44296 7.04722,-3.2032 12.3832,-7.9511 18.79782,-12.07467 4.90799,-3.15506 10.79551,-4.82826 15.92594,-7.63642 12.8292,-7.02212 24.35691,-16.47936 35.89862,-25.32418 7.5567,-5.79095 16.75056,-8.81236 23.49728,-15.7297 5.04482,-5.17241 -0.35931,-0.55771 9.00729,-8.87652 5.2094,-4.62664 11.27626,-7.58534 16.12175,-12.72736 0.49319,-0.52337 10.48895,-11.91806 8.35459,-9.07232"
       id="path1" />
    <path
       style="fill:#ffffff;fill-opacity:0;stroke:#ffffff;stroke-width:8.56063"
       d="m 534.61417,417.87219 c 17.45492,9.58825 32.81463,22.16704 49.40956,33.02586 1.61712,1.05815 9.53505,6.39566 13.11932,8.22383 4.44889,2.26917 9.34899,3.88616 13.64147,6.46158 9.58927,5.75341 19.34101,12.42154 28.45782,18.86259 4.4547,3.14726 8.56167,6.64405 13.24986,9.46394 14.84367,8.92828 29.99536,17.94349 45.36281,25.91159 10.05105,5.21152 20.86272,9.34138 31.26443,13.83692 4.49857,1.94425 9.23843,3.04511 13.83729,4.69933 4.65259,1.67355 8.97683,4.17858 13.64148,5.8089 3.88084,1.35637 7.97135,1.9735 11.87918,3.26342 6.04918,1.99677 11.77957,5.17438 17.88404,6.91846 4.0618,1.16049 7.97159,1.63248 12.00972,2.67601 10.24495,2.6475 20.30339,5.86367 30.61174,8.2891 8.45568,1.98952 17.29248,1.93635 25.71647,3.85084"
       id="path2" />
    <path
       style="fill:#ffffff;fill-opacity:0;stroke:#ffffff;stroke-width:8.56063"
       d="m 157.41754,587.57028 c 5.19986,-0.60917 10.45799,-0.84077 15.59958,-1.82752 1.43441,-0.27528 16.2828,-5.11467 18.60202,-5.67836 9.1947,-2.23476 18.36539,-4.03132 27.54403,-6.39631 8.52343,-2.19616 16.15986,-5.42499 24.21526,-8.81125 5.59887,-2.3536 11.50428,-4.09176 17.03553,-6.59212 3.59829,-1.62658 4.75898,-2.91906 8.41985,-4.37299 14.51906,-5.76628 30.66291,-7.64538 45.03646,-13.77165 4.07629,-1.73739 7.57023,-4.38386 11.42229,-6.52685 8.07647,-4.49313 16.03498,-9.0051 24.01944,-13.64111 6.15053,-3.57118 13.17494,-5.68349 19.18945,-9.46394 4.60236,-2.89283 8.35468,-7.16989 13.18458,-9.725 5.80259,-3.06968 11.78933,-5.4554 17.1008,-9.39867 3.06189,-2.27316 5.70027,-5.06493 8.94202,-7.11426 3.62479,-2.29147 7.59665,-4.10585 11.09594,-6.59212 5.81952,-4.13481 10.43045,-9.8112 15.92594,-14.35907 4.19716,-3.47342 8.84631,-6.39044 13.05404,-9.85554 3.7432,-3.08256 6.87656,-6.83626 10.50851,-10.05135 4.80417,-4.25276 10.29524,-7.77177 15.46904,-11.55253 1.81963,-1.32969 6.57404,-6.51562 9.07256,-6.26577"
       id="path3" />
    <path
       style="fill:#ffffff;fill-opacity:0;stroke:#ffffff;stroke-width:8.56063"
       d="m 547.53768,423.0284 c 46.96018,29.44882 4.04945,4.30903 36.74713,20.16796 6.48531,3.14549 15.24435,8.19074 21.60445,11.94414 5.71479,3.37257 10.64856,7.84148 15.92593,11.8136 5.09428,3.8343 10.6591,6.93751 15.7954,10.70403 5.29224,3.88088 9.96969,8.28859 15.46904,11.94414 12.86611,8.55239 27.07858,13.70281 41.18551,19.58054 8.1171,3.38204 16.08801,6.85372 24.3458,9.92082 4.52941,1.68231 8.77769,3.94136 13.18458,5.87416 3.88256,1.70283 8.01365,2.52092 11.94445,4.11192 8.15972,3.30265 15.50645,7.60911 23.88891,10.50822 10.49974,3.6314 21.366,6.48793 31.7866,10.24716 8.35541,3.01421 16.51097,6.55564 24.86795,9.59447 9.15551,3.32918 19.13945,1.52054 28.32728,4.11191 1.19192,0.33618 3.25761,1.30293 2.67608,2.34967"
       id="path4" />
    <path
       style="fill:#ffffff;fill-opacity:0;stroke:#ffffff;stroke-width:8.56063"
       d="m 701.57541,513.68634 c 8.04999,3.89435 16.38778,7.24272 24.14998,11.68306 2.13675,1.22232 3.5353,3.42656 5.28689,5.15621 1.56472,1.54512 -3.92859,-1.9777 -5.87432,-3.00235 -4.1614,-2.19145 -8.12381,-4.18215 -12.53188,-5.80889 -1.40734,-0.51936 -5.6657,-1.97554 -4.24257,-1.50118 7.02004,2.33995 13.40903,5.77312 19.97269,9.13759 2.12136,1.08739 4.28198,2.09749 6.39648,3.19816 0.79477,0.4137 3.02586,1.89329 2.34973,1.30537 -5.07819,-4.41571 -11.27787,-7.23117 -17.55769,-9.46394 -1.76344,-0.62698 -3.54748,-1.20105 -5.35216,-1.69698 -1.04916,-0.28831 -2.12882,-0.45217 -3.19824,-0.65268 -0.3236,-0.0607 -1.28408,-0.25445 -0.97905,-0.13054 9.6319,3.91286 19.49751,8.99783 29.56741,11.68306"
       id="path5" />
    <path
       style="fill:#ffffff;fill-opacity:0;stroke:#ffffff;stroke-width:8.56063"
       d="m 755.42334,541.03384 c -3.65513,-2.32791 -7.32651,-4.6305 -10.96539,-6.98373 -0.51581,-0.33356 12.11829,7.71186 10.96539,6.98373 -3.22963,-2.03971 -6.33916,-4.26771 -9.59472,-6.26577 -0.0217,-0.0133 -7.31158,-3.18813 -4.63419,-1.82752 5.36273,2.72524 9.50495,4.19099 14.22891,8.09329 z"
       id="path6" />
  </g>
</svg>
