<?xml version="1.0" encoding="UTF-8" standalone="no"?>
<!-- Created with Inkscape (http://www.inkscape.org/) -->

<svg
   version="1.1"
   id="svg1"
   width="1000"
   height="750"
   viewBox="0 0 1000 750"
   sodipodi:docname="20.svg"
   inkscape:export-filename="20_label.png"
   inkscape:export-xdpi="96"
   inkscape:export-ydpi="96"
   inkscape:version="1.3.2 (091e20e, 2023-11-25, custom)"
   xmlns:inkscape="http://www.inkscape.org/namespaces/inkscape"
   xmlns:sodipodi="http://sodipodi.sourceforge.net/DTD/sodipodi-0.dtd"
   xmlns="http://www.w3.org/2000/svg"
   xmlns:svg="http://www.w3.org/2000/svg">
  <defs
     id="defs1" />
  <sodipodi:namedview
     id="namedview1"
     pagecolor="#505050"
     bordercolor="#eeeeee"
     borderopacity="1"
     inkscape:showpageshadow="0"
     inkscape:pageopacity="0"
     inkscape:pagecheckerboard="0"
     inkscape:deskcolor="#505050"
     inkscape:export-bgcolor="#000000ff"
     inkscape:zoom="1.0013333"
     inkscape:cx="500.33289"
     inkscape:cy="375"
     inkscape:window-width="1920"
     inkscape:window-height="986"
     inkscape:window-x="-11"
     inkscape:window-y="-11"
     inkscape:window-maximized="1"
     inkscape:current-layer="g1" />
  <g
     inkscape:groupmode="layer"
     inkscape:label="Image"
     id="g1">
    <path
       style="fill:none;stroke:#ffffff;stroke-width:10;stroke-opacity:0.99785"
       d="m 223.9279,310.96239 c 4.6777,2.98059 8.80776,7.0815 14.0331,8.94178 3.42299,1.21863 7.26847,0.0486 10.90013,-0.0653 17.4867,-0.54835 32.93531,-9.24372 47.90834,-17.36142 8.1683,-4.42847 16.70097,-7.08336 23.82363,-13.38004 7.33934,-6.48823 15.20297,-12.25227 22.51823,-18.79733 1.75836,-1.57322 3.59208,-3.34815 4.96054,-5.28674 0.78188,-1.10764 2.49592,-5.42395 -0.52216,-2.74128"
       id="path1" />
    <path
       style="fill:none;stroke:#ffffff;stroke-width:10;stroke-opacity:0.99785"
       d="m 368.04456,262.40263 c 2.54554,8.00627 4.33426,16.29387 7.63661,24.0188 3.77988,8.84198 12.06455,14.61695 18.01459,21.79968 2.54935,3.07752 4.52721,6.5231 7.17972,9.5292 6.579,7.456 15.36357,12.18231 22.71404,18.73206 3.1732,2.82753 5.66875,6.20063 9.07256,8.81125 6.03604,4.62946 13.66506,7.1756 20.29904,10.89984 8.38778,4.7088 16.86108,9.6616 25.6512,13.57584 21.46442,9.55812 56.39449,16.44496 79.43386,19.45002 25.58501,3.33708 51.5301,2.857 76.69252,-3.26343 5.73627,-1.39527 11.58594,-2.4638 17.16607,-4.43826 3.81655,-1.35043 16.7959,-6.4204 3.78567,-2.80654"
       id="path2" />
  </g>
</svg>
