<?xml version="1.0" encoding="UTF-8" standalone="no"?>
<!-- Created with Inkscape (http://www.inkscape.org/) -->

<svg
   version="1.1"
   id="svg1"
   width="900"
   height="761"
   viewBox="0 0 900 761"
   sodipodi:docname="22.svg"
   inkscape:export-filename="22_label.png"
   inkscape:export-xdpi="96"
   inkscape:export-ydpi="96"
   inkscape:version="1.3.2 (091e20e, 2023-11-25, custom)"
   xmlns:inkscape="http://www.inkscape.org/namespaces/inkscape"
   xmlns:sodipodi="http://sodipodi.sourceforge.net/DTD/sodipodi-0.dtd"
   xmlns="http://www.w3.org/2000/svg"
   xmlns:svg="http://www.w3.org/2000/svg">
  <defs
     id="defs1" />
  <sodipodi:namedview
     id="namedview1"
     pagecolor="#505050"
     bordercolor="#eeeeee"
     borderopacity="1"
     inkscape:showpageshadow="0"
     inkscape:pageopacity="0"
     inkscape:pagecheckerboard="0"
     inkscape:deskcolor="#505050"
     inkscape:export-bgcolor="#000000ff"
     inkscape:zoom="0.9868594"
     inkscape:cx="449.91212"
     inkscape:cy="380.5"
     inkscape:window-width="1920"
     inkscape:window-height="986"
     inkscape:window-x="-11"
     inkscape:window-y="-11"
     inkscape:window-maximized="1"
     inkscape:current-layer="g1" />
  <g
     inkscape:groupmode="layer"
     inkscape:label="Image"
     id="g1">
    <path
       style="fill:none;stroke:#ffffff;stroke-width:10;stroke-opacity:0.99785"
       d="m 460.32446,346.98041 c 22.48251,-9.0207 46.27074,-13.0454 69.47267,-19.47038 15.2792,-4.23105 28.69538,-13.33219 43.37903,-19.07302 6.4847,-2.5353 13.23299,-4.15551 19.80203,-6.4239 10.26418,-3.54437 20.86389,-8.13311 30.26598,-13.57628 13.03815,-7.5482 26.78053,-13.34652 39.67028,-21.19225 5.0005,-3.0437 9.72654,-6.70096 14.57006,-10.00009 2.93329,-1.99798 4.70928,-3.19501 4.30479,-3.17883 -2.35449,0.0942 -3.10344,0.61517 -5.7618,1.45696"
       id="path1" />
    <path
       style="fill:none;stroke:#ffffff;stroke-width:10;stroke-opacity:0.99785"
       d="m 418.46867,351.21886 c -15.37016,-2.6798 -28.14971,-11.26736 -42.05448,-17.41738 -4.88215,-2.15936 -10.34929,-2.62665 -15.49724,-4.03977 -8.32567,-2.28542 -17.0273,-4.90843 -25.10023,-8.01332 -6.10463,-2.34787 -11.40581,-6.07556 -17.41784,-8.54312 -7.54905,-3.09841 -15.7671,-5.4147 -23.64322,-7.54974 -6.41985,-1.74027 -13.39371,-2.3133 -19.66958,-4.3709 -9.2069,-3.01858 -25.83515,-8.50729 -33.31244,-13.90741 -4.13224,-2.98432 -8.16745,-6.08355 -12.64946,-8.54313 -5.4281,-2.97875 -10.98161,-5.26811 -16.15951,-8.7418 -4.63708,-3.11087 -8.54621,-7.03382 -13.11305,-10.26499 -0.73556,-0.52043 -2.39954,-2.2881 -2.31796,-1.39074 0.0796,0.87608 0.52982,1.67772 0.79473,2.51658"
       id="path2" />
  </g>
</svg>
