<?xml version="1.0" encoding="UTF-8" standalone="no"?>
<!-- Created with Inkscape (http://www.inkscape.org/) -->

<svg
   version="1.1"
   id="svg1"
   width="2012"
   height="1509"
   viewBox="0 0 2012 1509"
   sodipodi:docname="23.svg"
   inkscape:export-filename="23_label.png"
   inkscape:export-xdpi="96"
   inkscape:export-ydpi="96"
   inkscape:version="1.3.2 (091e20e, 2023-11-25, custom)"
   xmlns:inkscape="http://www.inkscape.org/namespaces/inkscape"
   xmlns:sodipodi="http://sodipodi.sourceforge.net/DTD/sodipodi-0.dtd"
   xmlns="http://www.w3.org/2000/svg"
   xmlns:svg="http://www.w3.org/2000/svg">
  <defs
     id="defs1" />
  <sodipodi:namedview
     id="namedview1"
     pagecolor="#505050"
     bordercolor="#eeeeee"
     borderopacity="1"
     inkscape:showpageshadow="0"
     inkscape:pageopacity="0"
     inkscape:pagecheckerboard="0"
     inkscape:deskcolor="#505050"
     inkscape:export-bgcolor="#000000ff"
     inkscape:zoom="0.49768058"
     inkscape:cx="1006.6698"
     inkscape:cy="754.5"
     inkscape:window-width="1920"
     inkscape:window-height="986"
     inkscape:window-x="-11"
     inkscape:window-y="-11"
     inkscape:window-maximized="1"
     inkscape:current-layer="g1" />
  <g
     inkscape:groupmode="layer"
     inkscape:label="Image"
     id="g1">
    <path
       style="fill:none;stroke:#ffffff;stroke-width:20;stroke-dasharray:none;stroke-opacity:0.99785"
       d="m 1056.7331,908.69091 c 3.4582,-4.37734 7.1536,-8.57728 10.3746,-13.13202 2.3075,-3.26314 3.5341,-7.19855 5.7782,-10.50562 15.7879,-23.26567 35.7374,-44.07672 56.7319,-62.63974 8.1258,-7.18473 16.6519,-15.14757 26.5273,-19.96068 27.9762,-13.63507 58.4954,-23.87387 88.1182,-33.61797 15.8445,-5.21186 32.7959,-7.58275 48.0645,-14.31391 23.7681,-10.47811 45.7395,-25.8196 68.2883,-38.60814 7.9124,-4.48749 16.4167,-7.84099 24.5576,-11.81882 32.5474,-15.90345 63.194,-35.87833 96.6542,-50.16432 22.3161,-9.52796 38.2087,-25.73228 55.1559,-42.67907 6.8984,-6.89813 14.4632,-13.06683 20.3552,-20.87992 6.1125,-8.10548 10.5267,-17.15357 16.8095,-25.3448 9.4982,-12.3834 21.6778,-21.18571 32.4369,-32.17345 10.5232,-10.74678 19.7561,-22.82228 30.8611,-32.96138 5.7846,-5.28145 13.3244,-8.62954 18.9106,-14.05126 2.0753,-2.01422 8.4049,-6.82295 5.5156,-6.69733 -4.2232,0.18361 -2.6031,-0.0745 -6.4349,3.02037"
       id="path7" />
    <path
       style="fill:none;stroke:#ffffff;stroke-width:20;stroke-dasharray:none;stroke-opacity:0.99785"
       d="m 374.37519,458.52521 c 2.86006,14.98198 14.65918,25.10202 22.45635,37.42626 10.10624,15.97395 17.09324,33.96462 26.79004,50.29564 9.72494,16.37843 22.79996,29.88319 33.61886,45.30548 21.54473,30.71188 29.89031,47.20766 64.61126,67.49859 15.54815,9.08634 32.77915,13.36851 49.37771,19.96067 9.24988,3.67362 18.15271,8.45703 27.31533,12.3441 7.39969,3.13918 15.68419,3.7259 23.11297,6.69733 11.00091,4.40025 21.60968,11.03128 32.1743,16.41503 10.63935,5.42183 21.68564,9.81292 31.78033,16.28371 19.76591,12.67011 39.94813,24.74218 59.35831,37.95154 13.91409,9.46906 26.66101,21.91253 39.52844,32.83005 16.08323,13.64602 29.00724,30.6843 46.22594,43.07303 11.05082,7.95099 19.70226,17.6235 29.4165,27.18329 15.08569,14.84584 30.55165,29.25113 45.04403,44.64887 3.20843,3.40887 12.64432,8.00265 11.68781,13.26334"
       id="path8" />
  </g>
</svg>
