<?xml version="1.0" encoding="UTF-8" standalone="no"?>
<!-- Created with Inkscape (http://www.inkscape.org/) -->

<svg
   version="1.1"
   id="svg1"
   width="1000"
   height="750"
   viewBox="0 0 1000 750"
   sodipodi:docname="3.svg"
   inkscape:export-filename="3_label.png"
   inkscape:export-xdpi="96"
   inkscape:export-ydpi="96"
   inkscape:version="1.3.2 (091e20e, 2023-11-25, custom)"
   xmlns:inkscape="http://www.inkscape.org/namespaces/inkscape"
   xmlns:sodipodi="http://sodipodi.sourceforge.net/DTD/sodipodi-0.dtd"
   xmlns="http://www.w3.org/2000/svg"
   xmlns:svg="http://www.w3.org/2000/svg">
  <defs
     id="defs1" />
  <sodipodi:namedview
     id="namedview1"
     pagecolor="#ffffff"
     bordercolor="#000000"
     borderopacity="0.25"
     inkscape:showpageshadow="2"
     inkscape:pageopacity="0.0"
     inkscape:pagecheckerboard="0"
     inkscape:deskcolor="#d1d1d1"
     inkscape:export-bgcolor="#000000ff"
     inkscape:zoom="1.0013333"
     inkscape:cx="500.33289"
     inkscape:cy="375"
     inkscape:window-width="1920"
     inkscape:window-height="986"
     inkscape:window-x="-11"
     inkscape:window-y="-11"
     inkscape:window-maximized="1"
     inkscape:current-layer="g1" />
  <g
     inkscape:groupmode="layer"
     inkscape:label="Image"
     id="g1">
    <path
       style="fill:#ffffff;fill-opacity:0;stroke:#ffffff;stroke-width:8.56063"
       d="m 249.38329,462.1895 c -0.10879,1.45766 -0.96266,3.05703 -0.32635,4.37299 0.2224,0.45996 20.98918,11.00233 22.90984,11.68306 2.56803,0.91016 5.18707,1.6701 7.76716,2.54547 11.41272,3.87207 23.97329,8.8364 36.22498,8.22383 22.41196,-1.12057 43.50242,-17.71795 62.72468,-27.93492 5.50911,-2.92818 11.65845,-4.30748 17.16607,-7.2448 3.89769,-2.07871 7.21411,-4.97354 10.90013,-7.37534 7.28717,-4.74829 14.07738,-9.3864 20.8212,-14.88122 4.15317,-3.38397 10.36859,-6.49259 13.3804,-10.50823"
       id="path1" />
    <path
       style="fill:#ffffff;fill-opacity:0;stroke:#ffffff;stroke-width:8.56063"
       d="m 473.45597,420.93981 c 0.17405,1.50117 -0.13609,3.14318 0.52216,4.50352 4.00065,8.2678 12.12412,19.451 19.38526,25.78106 5.52477,4.81634 10.61447,10.34619 16.83972,14.2938 5.48591,3.47878 11.43737,5.3817 17.42715,7.76695 7.34441,2.92469 14.46095,5.9804 22.1266,8.02803 12.19843,3.25839 24.74962,4.76562 37.20403,6.65738 24.52917,3.72585 64.627,13.22126 79.56441,-14.16326"
       id="path2" />
    <path
       style="fill:#ffffff;fill-opacity:0;stroke:#ffffff;stroke-width:8.56063"
       d="m 321.63743,485.16401 c 12.71199,-2.76987 21.26485,-12.6779 32.11295,-18.66679 6.38029,-3.52236 16.02271,-9.04458 22.64877,-11.8136 5.37269,-2.24525 11.46601,-3.05992 16.97025,-5.02568 4.3177,-1.54199 8.14145,-4.82198 11.94446,-7.2448 5.72443,-3.64692 13.14377,-5.43012 18.21039,-10.11662 4.58467,-4.24071 8.62428,-10.16587 13.83729,-13.64111 1.7557,-1.17044 -1.13043,3.4534 -2.80662,6.13524 -1.83698,2.93908 -4.0184,5.72395 -6.20068,8.41963 -6.26964,7.74465 -17.61477,20.62993 -25.91227,25.58525 -7.95354,4.74991 -16.5683,7.05935 -24.93323,10.83457 -12.0648,5.44504 -23.65767,12.46456 -35.89862,17.49196 -3.71164,1.52438 -8.33078,2.67802 -12.33608,2.87182 -1.4959,0.0724 -3.77295,-0.41761 -5.22162,0.0653 -0.4765,0.15884 -0.0851,1.00096 -0.13054,1.50118"
       id="path3" />
  </g>
</svg>
