<?xml version="1.0" encoding="UTF-8" standalone="no"?>
<!-- Created with Inkscape (http://www.inkscape.org/) -->

<svg
   version="1.1"
   id="svg1"
   width="1000"
   height="750"
   viewBox="0 0 1000 750"
   sodipodi:docname="4.svg"
   inkscape:export-filename="4_label.png"
   inkscape:export-xdpi="96"
   inkscape:export-ydpi="96"
   inkscape:version="1.3.2 (091e20e, 2023-11-25, custom)"
   xmlns:inkscape="http://www.inkscape.org/namespaces/inkscape"
   xmlns:sodipodi="http://sodipodi.sourceforge.net/DTD/sodipodi-0.dtd"
   xmlns="http://www.w3.org/2000/svg"
   xmlns:svg="http://www.w3.org/2000/svg">
  <defs
     id="defs1" />
  <sodipodi:namedview
     id="namedview1"
     pagecolor="#ffffff"
     bordercolor="#000000"
     borderopacity="0.25"
     inkscape:showpageshadow="2"
     inkscape:pageopacity="0.0"
     inkscape:pagecheckerboard="0"
     inkscape:deskcolor="#d1d1d1"
     inkscape:export-bgcolor="#000000ff"
     inkscape:zoom="1.0013333"
     inkscape:cx="500.33289"
     inkscape:cy="375"
     inkscape:window-width="1920"
     inkscape:window-height="986"
     inkscape:window-x="-11"
     inkscape:window-y="-11"
     inkscape:window-maximized="1"
     inkscape:current-layer="g1" />
  <g
     inkscape:groupmode="layer"
     inkscape:label="Image"
     id="g1">
    <path
       style="fill:#ffffff;fill-opacity:0;stroke:#ffffff;stroke-width:8.56063"
       d="m 226.01655,545.73317 c 19.10719,0.11787 37.19608,-6.565 54.89226,-13.11897 5.40643,-2.00233 10.18315,-5.24832 15.40377,-7.63641 4.80175,-2.19649 9.96339,-3.49454 14.62053,-6.0047 12.64774,-6.81704 24.52743,-15.16092 36.81241,-22.5829 6.3045,-3.80887 13.29847,-6.06797 19.64633,-9.85554 3.86731,-2.30751 7.17423,-5.61401 10.83486,-8.22383 4.44689,-3.17039 9.3192,-5.72388 13.77202,-8.87652 4.37627,-3.09845 7.78667,-6.81885 11.68337,-10.44296 6.69591,-6.2275 14.02712,-11.79374 20.42958,-18.34045 4.27708,-4.37344 7.77291,-9.4489 11.74864,-14.09799 4.19448,-4.90489 9.07753,-8.99443 12.66242,-14.42434 3.17835,-4.81413 9.74309,-18.04379 13.96783,-21.21226"
       id="path1" />
    <path
       style="fill:#ffffff;fill-opacity:0;stroke:#ffffff;stroke-width:8.56063"
       d="m 488.92501,381.90924 c 15.56986,19.32735 29.58335,40.23509 48.43051,56.65306 6.26549,5.45794 13.79424,9.24422 20.03796,14.75068 4.1062,3.62135 7.66818,7.83667 11.87918,11.35672 4.22177,3.52904 9.15849,6.06686 13.57621,9.33339 4.05967,3.0018 7.78047,6.44558 12.07499,9.13759 6.21304,3.89464 13.19381,6.1798 19.31999,10.31243 7.10625,4.79377 14.30616,9.5697 21.27809,14.55487 3.7508,2.68195 7.26356,5.77501 11.35702,7.89749 10.23287,5.30579 21.9196,10.86065 33.02673,14.22853 5.9873,1.81546 12.27862,2.6852 18.34094,4.24245 9.35768,2.40375 19.06043,4.73508 28.7189,5.61309 6.76428,0.61492 13.6523,-0.8638 20.36431,0.13054"
       id="path2" />
    <path
       style="fill:#ffffff;fill-opacity:0;stroke:#ffffff;stroke-width:8.56063"
       d="m 488.99028,386.54331 c 12.17124,11.01202 18.04292,27.63215 30.02431,38.76949 2.39027,2.22188 5.15757,3.78304 7.37553,6.26577 5.36784,6.00862 10.74576,12.34861 17.23134,17.23088 4.21225,3.17094 8.90085,5.62776 13.18459,8.74598 4.35692,3.1715 8.16854,7.03998 12.59715,10.11662 4.51012,3.13326 9.37571,5.74352 13.96783,8.74598 5.31528,3.47528 9.78679,7.76055 15.3385,10.96511 11.48183,6.62754 23.44829,12.19597 35.11538,18.40571 6.0179,3.20299 11.58436,7.36882 17.68824,10.37769 8.83962,4.35745 18.12072,8.73623 27.28295,12.40102 4.48011,1.79199 9.40676,2.60405 13.96783,4.24245 4.58659,1.64757 8.9863,3.82373 13.64147,5.28675 12.04877,3.78665 25.99966,4.82987 38.57471,4.82987"
       id="path3" />
    <path
       style="fill:#ffffff;fill-opacity:0;stroke:#ffffff;stroke-width:8.56063"
       d="m 235.48073,546.84274 c 5.15635,-1.84928 10.39404,-3.48577 15.46904,-5.54783 5.49,-2.23067 10.43679,-5.7019 15.99121,-7.76695 5.89687,-2.19236 12.26179,-3.31409 18.14512,-5.67836 4.94632,-1.98772 9.30117,-5.06005 14.16364,-7.17953 4.96617,-2.16468 4.48746,-1.3332 9.92107,-4.30772 5.81136,-3.18131 9.58869,-9.0357 15.07743,-12.66209 5.89354,-3.89385 12.45548,-6.71523 18.34093,-10.63876 3.66434,-2.44283 6.8146,-5.5335 10.50851,-7.96276 3.7449,-2.4628 7.71466,-4.45553 11.48755,-6.85319 5.02398,-3.19273 9.38108,-7.50086 14.55526,-10.44296 4.58087,-2.60474 9.53203,-4.60484 13.70675,-7.89749 5.0173,-3.9572 8.90519,-9.27413 13.83729,-13.31477 1.97982,-1.62199 8.693,-6.34903 11.6181,-9.07233 6.86957,-6.39563 11.62578,-15.10505 17.94931,-22.06075 3.77161,-4.14866 9.16223,-7.98104 11.81391,-13.0537 2.00369,-3.83304 4.64442,-9.60469 7.50608,-12.46628"
       id="path4" />
    <path
       style="fill:#ffffff;fill-opacity:0;stroke:#ffffff;stroke-width:8.56063"
       d="m 353.0324,489.92861 c 2.04514,-1.26186 4.0879,-2.52758 6.13541,-3.78558 4.89289,-3.00621 9.41453,-6.72856 14.6858,-9.00705 1.99116,-0.86067 -2.98143,3.15576 -4.56892,4.63407 -4.46435,4.15732 -4.78948,4.54473 -9.00729,7.04899 -0.36324,0.21567 0.70268,-0.46949 1.04432,-0.71795 2.93633,-2.13545 3.4716,-2.49204 6.33122,-5.54782 1.76975,-1.89116 5.73281,-9.03384 8.87675,-8.55018"
       id="path5" />
  </g>
</svg>
