<?xml version="1.0" encoding="UTF-8" standalone="no"?>
<!-- Created with Inkscape (http://www.inkscape.org/) -->

<svg
   version="1.1"
   id="svg1"
   width="1000"
   height="750"
   viewBox="0 0 1000 750"
   sodipodi:docname="5.svg"
   inkscape:export-filename="5_label.png"
   inkscape:export-xdpi="96"
   inkscape:export-ydpi="96"
   inkscape:version="1.3.2 (091e20e, 2023-11-25, custom)"
   xmlns:inkscape="http://www.inkscape.org/namespaces/inkscape"
   xmlns:sodipodi="http://sodipodi.sourceforge.net/DTD/sodipodi-0.dtd"
   xmlns="http://www.w3.org/2000/svg"
   xmlns:svg="http://www.w3.org/2000/svg">
  <defs
     id="defs1" />
  <sodipodi:namedview
     id="namedview1"
     pagecolor="#ffffff"
     bordercolor="#000000"
     borderopacity="0.25"
     inkscape:showpageshadow="2"
     inkscape:pageopacity="0.0"
     inkscape:pagecheckerboard="0"
     inkscape:deskcolor="#d1d1d1"
     inkscape:export-bgcolor="#000000ff"
     inkscape:zoom="1.0013333"
     inkscape:cx="500.33289"
     inkscape:cy="324.06791"
     inkscape:window-width="1920"
     inkscape:window-height="986"
     inkscape:window-x="-11"
     inkscape:window-y="-11"
     inkscape:window-maximized="1"
     inkscape:current-layer="g1" />
  <g
     inkscape:groupmode="layer"
     inkscape:label="Image"
     id="g1">
    <path
       style="fill:#ffffff;fill-opacity:0;stroke:#ffffff;stroke-width:8.56063"
       d="m 165.1847,540.11706 c 52.53623,42.49634 18.70778,22.46005 149.59935,13.31477 7.64983,-0.53448 14.63308,-4.91855 21.2781,-8.74597 7.13708,-4.11086 12.25613,-10.41052 18.73255,-15.3381 3.58803,-2.72995 7.81062,-4.27589 11.55283,-6.72266 5.17264,-3.38202 9.682,-7.62716 14.94688,-10.89984 7.97964,-4.96018 15.90124,-9.84382 23.69309,-15.07702 8.85166,-5.94499 17.6491,-10.58299 25.78174,-17.49196 4.84377,-4.11495 5.22662,-4.25674 10.24743,-8.09329 6.21094,-4.74597 13.71962,-9.45508 18.47147,-15.92551 3.71323,-5.05618 6.7661,-10.33853 10.83486,-15.20756 1.95414,-2.3385 8.24111,-7.94431 2.87189,-8.61544"
       id="path1" />
    <path
       style="fill:#ffffff;fill-opacity:0;stroke:#ffffff;stroke-width:8.56063"
       d="m 497.41014,420.41464 c 6.9404,7.89748 12.89752,16.78199 20.82121,23.69246 14.30395,12.47489 26.60974,17.51278 40.40226,27.28223 18.59494,13.17107 -4.96765,-3.32508 10.9654,8.55018 5.43432,4.05031 11.51338,7.13903 17.1008,10.9651 15.945,10.91857 31.82886,21.15986 48.82213,30.34985 6.54167,3.53775 12.58029,8.08108 19.31999,11.22619 4.47185,2.08681 9.17655,3.54978 13.64147,5.67836 8.71245,4.15349 18.09956,6.94938 27.21769,10.05134 10.04605,3.41764 20.94067,8.65483 31.91714,7.63642 4.95578,-0.4598 10.4823,-1.64759 14.48999,-4.7646 3.70183,-2.87913 3.27542,-4.58613 -3.0677,-2.87182"
       id="path2" />
  </g>
</svg>
