<?xml version="1.0" encoding="UTF-8" standalone="no"?>
<!-- Created with Inkscape (http://www.inkscape.org/) -->

<svg
   version="1.1"
   id="svg1"
   width="1000"
   height="750"
   viewBox="0 0 1000 750"
   sodipodi:docname="6.svg"
   inkscape:export-filename="6_label.png"
   inkscape:export-xdpi="96"
   inkscape:export-ydpi="96"
   inkscape:version="1.3.2 (091e20e, 2023-11-25, custom)"
   xmlns:inkscape="http://www.inkscape.org/namespaces/inkscape"
   xmlns:sodipodi="http://sodipodi.sourceforge.net/DTD/sodipodi-0.dtd"
   xmlns="http://www.w3.org/2000/svg"
   xmlns:svg="http://www.w3.org/2000/svg">
  <defs
     id="defs1" />
  <sodipodi:namedview
     id="namedview1"
     pagecolor="#ffffff"
     bordercolor="#000000"
     borderopacity="0.25"
     inkscape:showpageshadow="2"
     inkscape:pageopacity="0.0"
     inkscape:pagecheckerboard="0"
     inkscape:deskcolor="#d1d1d1"
     inkscape:export-bgcolor="#000000ff"
     inkscape:zoom="1.0013333"
     inkscape:cx="500.33289"
     inkscape:cy="375"
     inkscape:window-width="1920"
     inkscape:window-height="986"
     inkscape:window-x="-11"
     inkscape:window-y="-11"
     inkscape:window-maximized="1"
     inkscape:current-layer="g1" />
  <g
     inkscape:groupmode="layer"
     inkscape:label="Image"
     id="g1">
    <path
       style="fill:#ffffff;fill-opacity:0;stroke:#ffffff;stroke-width:8.56063"
       d="m 268.31165,501.08952 c 5.25205,4.56424 12.11635,4.18036 18.2104,6.39631 27.68602,10.06738 58.84043,9.06493 87.59264,4.17719 7.49766,-1.27457 15.366,-2.3465 22.5835,-4.82987 3.72301,-1.281 7.16306,-3.11328 10.76958,-4.63406 5.18604,-2.18683 10.40023,-3.25762 15.33851,-6.13524 4.76898,-2.77898 9.10867,-6.05492 13.70674,-9.07232 3.74008,-2.45437 8.0783,-4.16999 11.48756,-7.11427 5.37759,-4.64416 9.73275,-10.32614 15.07742,-15.01176 2.41311,-2.11554 5.27455,-3.76144 7.76716,-5.80889 6.83446,-5.61387 12.68252,-12.06731 19.05891,-18.14464 4.64735,-4.42939 10.00117,-7.45092 14.42472,-12.27048 5.66522,-6.17239 9.47632,-13.90674 15.01215,-20.23324 4.97405,-5.68447 9.97014,-10.58225 13.24985,-17.42668 0.82404,-1.71969 1.4997,-3.58603 2.21919,-5.35202 0.15092,-0.37042 0.8565,-1.09219 0.45689,-1.10957 -1.91547,-0.0833 -1.34091,-0.14846 -2.48026,1.37064"
       id="path1" />
    <path
       style="fill:#ffffff;fill-opacity:0;stroke:#ffffff;stroke-width:8.56063"
       d="m 295.00717,512.25043 c 14.21098,1.6258 28.32297,0.11034 42.49092,-0.52214 11.70548,-0.52256 23.02101,-0.32151 34.72376,-1.56645 16.74716,-1.78156 34.01613,-4.31487 49.73591,-10.70403 10.37816,-4.21811 21.51766,-9.95039 30.74228,-16.18659 3.47235,-2.34744 6.37058,-5.57891 9.92107,-7.76695 3.8553,-2.37588 8.32478,-3.39409 12.14027,-5.8089 4.75654,-3.01039 8.6299,-7.22419 13.38039,-10.24715 9.18519,-5.84497 14.28386,-8.00109 21.27809,-17.03508 4.74929,-6.13433 10.33575,-11.68515 14.94689,-17.88357 2.66548,-3.58302 4.49266,-7.852 6.85337,-11.61779 2.689,-4.28948 5.88097,-8.93879 7.11445,-13.96746 0.96786,-3.94578 0.42679,-7.8733 0.52217,-11.87886 0.045,-1.892 0.0854,-4.11821 0.0653,-4.11192 -0.35486,0.11089 -0.69622,0.26107 -1.04433,0.39161"
       id="path2" />
    <path
       style="fill:#ffffff;fill-opacity:0;stroke:#ffffff;stroke-width:8.56063"
       d="m 476.65421,465.97507 c 27.85417,-26.84263 24.37486,-22.10105 40.72862,-40.4012 7.56235,-8.4624 -9.20411,8.91363 -13.51093,12.85789 -4.8607,4.45151 -10.56604,7.98747 -15.07743,12.79263 -4.35873,4.64257 -7.80289,10.08813 -12.14026,14.75068 -2.60217,2.79725 4.37708,-6.28516 6.91865,-9.13759 5.7136,-6.41244 13.82644,-10.43212 19.90741,-16.51293 11.73545,-11.73513 -6.8886,6.80128 4.76473,-5.02567 0.70259,-0.71306 2.77447,-2.85623 2.21919,-2.02333 -5.5614,8.34188 -16.5021,15.74838 -23.49728,21.66914 -2.37305,2.00857 -9.1821,8.37986 -6.78811,6.39632 14.42869,-11.95488 28.00472,-24.99272 42.16457,-37.26832 0.58987,-0.51137 9.54948,-7.03774 8.87675,-9.92081 -0.27745,-1.18903 -2.92934,0.33773 -7.76716,4.96041 -3.41469,3.26284 -6.67265,6.68597 -9.98634,10.05135 -1.3496,1.37065 -5.0846,5.75302 -3.98149,4.17718 5.02048,-7.17192 9.97881,-14.3567 15.01216,-21.5386 3.41698,-4.87557 1.84169,-3.04964 4.82999,-6.72266 0.45039,-0.55359 1.70128,-2.29078 1.30541,-1.69698 -0.84835,1.27249 -0.54722,1.12043 -0.78324,3.06762"
       id="path3" />
    <path
       style="fill:#ffffff;fill-opacity:0;stroke:#ffffff;stroke-width:8.56063"
       d="m 566.3355,383.80203 c 6.48129,10.51987 11.12631,23.11434 20.8212,31.32888 5.63152,4.77162 12.00612,8.69646 17.7535,13.31477 3.88302,3.12021 6.86181,7.59384 11.09594,10.24716 5.45063,3.41563 11.5401,5.36398 17.29661,8.09329 4.53498,2.15015 7.77986,5.84834 11.16121,9.39866 2.80059,2.94054 5.76413,6.00125 9.13783,8.2891 5.31772,3.60618 11.79836,5.25463 17.23134,8.87652 8.82226,5.88135 18.17019,13.88129 27.80512,18.20991 6.65522,2.98995 13.08034,3.80846 20.03796,5.54782 14.13226,3.53298 28.5609,6.73859 43.01308,8.61544 2.35008,0.3052 4.53176,-0.42678 6.85337,-0.39161 4.82441,0.0731 9.72304,1.48569 14.55526,1.37064 1.79906,-0.0428 17.2397,-2.22749 18.47147,-3.45923 0.0987,-0.0987 -2.63279,1.19099 -3.52459,1.50118 -2.29439,0.79802 -3.47668,0.45688 -5.74378,0.45688 -3.22,0 -6.67298,-0.25249 -9.8558,-0.0653 -4.48477,0.2638 -8.84963,1.38625 -13.3804,1.2401 -5.88787,-0.18993 -11.81205,-2.39897 -17.62296,-3.32869 -16.59909,-2.65579 -33.65161,-6.36966 -49.73591,-11.48726 -7.42024,-2.36092 -15.06156,-5.91052 -21.80026,-9.79027 -3.51777,-2.02534 -6.71757,-4.59944 -10.37796,-6.39632 -7.41766,-3.6413 -15.71092,-4.8045 -22.90985,-8.87651 -8.1003,-4.58187 -15.44255,-11.02419 -23.10566,-16.31713 -9.1086,-6.29134 -19.02562,-12.10173 -27.47877,-19.2542 -10.81774,-9.15323 -21.96905,-24.33732 -27.21768,-37.33358 -1.19913,-2.96919 -1.63302,-6.78648 -2.48027,-9.79028 z"
       id="path4" />
    <path
       style="fill:#ffffff;fill-opacity:0;stroke:#ffffff;stroke-width:8.56063"
       d="m 626.51465,447.0472 c 4.56891,3.78558 8.31206,8.88632 13.70675,11.35672 11.37906,5.21084 -8.33615,-9.16597 -8.61567,-9.725 -0.32694,-0.65385 1.19798,0.84065 1.76229,1.30537 2.45461,2.02138 4.77542,4.24297 7.11446,6.39631 0.81617,0.75137 2.2627,3.30695 2.48027,2.21913 0.0219,-0.10934 -13.38828,-15.17354 -8.28932,-7.37534 4.31804,6.60389 10.49628,11.5623 16.51336,16.51293 7.47071,6.14662 17.38776,14.05906 25.91228,18.66679 3.7313,2.01686 7.93527,3.03827 11.6181,5.09094 10.63107,5.92536 21.80897,12.17139 33.80998,14.88122 7.36935,1.664 15.04582,1.56347 22.45296,3.26342 7.66543,1.75924 14.9204,2.71157 22.64877,3.58977 2.76943,0.3147 6.04999,1.69986 8.81148,1.30537 5.59423,-0.79915 17.92715,-6.12292 23.36674,-4.56879"
       id="path5" />
    <path
       style="fill:#ffffff;fill-opacity:0;stroke:#ffffff;stroke-width:8.56063"
       d="m 464.44868,471.7187 c 43.55206,-47.74152 18.47012,-11.10705 9.2031,-4.04665 -2.66564,2.03091 -5.86352,4.32494 -9.2031,4.04665 -2.89145,-0.24095 5.4239,-2.30038 7.63662,-4.17719 2.74268,-2.32632 4.76271,-5.39534 6.98391,-8.22383 0.57167,-0.72796 2.19856,-2.82887 1.37067,-2.41493 -1.05477,0.52737 -1.30259,1.9905 -2.15391,2.80654 -2.83831,2.72067 -5.90745,5.18989 -8.87675,7.76695 -1.6432,1.42613 -7.04789,3.62855 -4.96054,4.24246 3.30815,0.97296 9.37417,-5.5325 11.68337,-7.70169"
       id="path6" />
  </g>
</svg>
