<?xml version="1.0" encoding="UTF-8" standalone="no"?>
<!-- Created with Inkscape (http://www.inkscape.org/) -->

<svg
   version="1.1"
   id="svg1"
   width="1000"
   height="750"
   viewBox="0 0 1000 750"
   sodipodi:docname="7.svg"
   inkscape:export-filename="7_label.png"
   inkscape:export-xdpi="96"
   inkscape:export-ydpi="96"
   inkscape:version="1.3.2 (091e20e, 2023-11-25, custom)"
   xmlns:inkscape="http://www.inkscape.org/namespaces/inkscape"
   xmlns:sodipodi="http://sodipodi.sourceforge.net/DTD/sodipodi-0.dtd"
   xmlns="http://www.w3.org/2000/svg"
   xmlns:svg="http://www.w3.org/2000/svg">
  <defs
     id="defs1" />
  <sodipodi:namedview
     id="namedview1"
     pagecolor="#ffffff"
     bordercolor="#000000"
     borderopacity="0.25"
     inkscape:showpageshadow="2"
     inkscape:pageopacity="0.0"
     inkscape:pagecheckerboard="0"
     inkscape:deskcolor="#d1d1d1"
     inkscape:export-bgcolor="#000000ff"
     inkscape:zoom="1.0013333"
     inkscape:cx="500.33289"
     inkscape:cy="375"
     inkscape:window-width="1920"
     inkscape:window-height="986"
     inkscape:window-x="-11"
     inkscape:window-y="-11"
     inkscape:window-maximized="1"
     inkscape:current-layer="g1" />
  <g
     inkscape:groupmode="layer"
     inkscape:label="Image"
     id="g1">
    <path
       style="fill:#ffffff;fill-opacity:0;stroke:#ffffff;stroke-width:8.56063"
       d="m 229.67168,498.15244 c 2.57694,3.73269 5.08115,7.82868 9.79053,8.94178 5.89496,1.39332 13.23445,-1.31107 18.92837,-2.61074 7.69157,-1.75564 15.58588,-3.41254 23.10566,-5.80889 5.26476,-1.67774 10.02825,-4.67414 15.07742,-6.8532 4.88766,-2.10935 10.07682,-3.2568 15.07742,-5.02567 4.14957,-1.46783 8.32405,-3.34795 12.53189,-4.69933 19.49381,-6.26062 38.75553,-13.14179 58.22104,-19.51528 13.26276,-4.34256 26.60377,-8.44945 39.35794,-14.22854 7.46332,-3.38172 14.18312,-8.18604 21.53918,-11.81359 9.60951,-4.73882 19.67159,-10.79408 27.80511,-17.8183 3.56199,-3.07618 6.52573,-6.74456 10.05162,-9.85555 0.71987,-0.63516 10.77425,-9.11038 10.24742,-9.725 -1.15995,-1.35324 -2.50045,2.55921 -3.45932,3.65503"
       id="path1" />
    <path
       style="fill:#ffffff;fill-opacity:0;stroke:#ffffff;stroke-width:8.56063"
       d="m 506.54797,400.70657 c 2.9655,8.41387 5.7008,17.89468 11.74865,24.8673 4.99672,5.76078 11.52406,10.08313 17.2966,14.94649 4.50775,3.79776 8.18673,8.34778 12.92351,11.94413 5.04875,3.83321 10.6443,7.03248 15.86066,10.63877 6.11514,4.22763 12.09099,9.28193 18.79783,12.53155 8.22782,3.98657 -2.53246,-1.84374 7.24499,3.00235 3.14883,1.56068 5.72288,3.84886 9.0073,5.15621 4.10445,1.63377 8.47947,2.50232 12.59715,4.11191 3.75931,1.46952 7.16581,3.63159 10.83486,5.28675 9.24239,4.16939 19.14647,8.18237 28.91471,10.96511 9.16726,2.61154 18.07303,3.32794 27.47876,4.37299 23.0721,2.5635 46.47352,6.0047 69.7086,6.0047 4.2608,0 15.04753,-2.90208 18.8631,-5.28675 1.8678,-1.16734 -4.30201,1.29731 -6.07013,2.61074"
       id="path2" />
  </g>
</svg>
